<?xml version="1.0" encoding="UTF-8"?>
<svg version="1.1" xmlns="http://www.w3.org/2000/svg" width="3000" height="3000">
<path d="M0 0 C1.14872086 -0.00637985 2.29744171 -0.0127597 3.48097229 -0.01933289 C5.34652016 -0.02100212 5.34652016 -0.02100212 7.24975586 -0.02270508 C8.53136093 -0.02603348 9.812966 -0.02936188 11.13340759 -0.03279114 C13.85115397 -0.03878112 16.56886858 -0.04063143 19.28662109 -0.04003906 C22.74392913 -0.03993804 26.20102903 -0.05352858 29.658288 -0.07081127 C32.98044638 -0.0847183 36.30256883 -0.08402345 39.62475586 -0.08520508 C41.4690493 -0.09598335 41.4690493 -0.09598335 43.3506012 -0.10697937 C50.30660106 -0.08870017 56.64117155 0.5412584 63.40209961 2.14526367 C65.09763618 2.4343287 66.79511078 2.7127914 68.49584961 2.96948242 C83.44800204 5.33325705 97.86368205 8.95829916 112.40209961 13.14526367 C113.18166016 13.3629541 113.9612207 13.58064453 114.7644043 13.80493164 C147.75652267 23.02399496 177.77638261 40.95512262 204.40209961 62.14526367 C205.37276367 62.90194336 206.34342773 63.65862305 207.34350586 64.43823242 C221.07732126 75.34750754 234.00529314 87.81566546 245.40209961 101.14526367 C246.23870117 102.10432617 247.07530273 103.06338867 247.93725586 104.05151367 C258.00159407 115.66490198 266.50729363 127.97005369 274.40209961 141.14526367 C274.9009668 141.92643555 275.39983398 142.70760742 275.91381836 143.51245117 C279.35463114 148.96119031 282.19014933 154.65013575 284.96459961 160.45776367 C285.3286792 161.21589355 285.69275879 161.97402344 286.06787109 162.75512695 C304.28404494 201.52529189 312.9693928 243.21499818 313.64086914 285.88964844 C314.14957469 316.67001355 319.90017693 346.25530411 333.40209961 374.14526367 C333.75844482 374.88647461 334.11479004 375.62768555 334.48193359 376.39135742 C337.53655253 382.3265538 341.41542357 386.67425124 346.21459961 391.27026367 C346.88813477 391.93413086 347.56166992 392.59799805 348.25561523 393.28198242 C351.56878939 396.52223504 354.94680264 399.63451299 358.47631836 402.63745117 C361.10160635 404.9048811 363.42814405 407.23293056 365.66969299 409.87864685 C369.2944351 414.07102938 373.12289799 418.00725893 377.04638672 421.91894531 C377.77582993 422.65014084 378.50527313 423.38133636 379.25682068 424.13468933 C381.64520281 426.52743739 384.03718249 428.91655029 386.42944336 431.30541992 C388.1043584 432.98100951 389.77912505 434.65674744 391.45375061 436.33262634 C394.95468636 439.83503195 398.45741289 443.33563397 401.96142578 446.83496094 C406.43780792 451.30564625 410.90968524 455.78080639 415.38022518 460.2573328 C418.8349238 463.71565627 422.29201466 467.17158046 425.7498188 470.62679863 C427.3990664 472.27538228 429.04758017 473.92470042 430.69532585 475.57478523 C433.00393585 477.88595343 435.31575947 480.19386038 437.62841797 482.50097656 C438.29931458 483.1738974 438.97021118 483.84681824 439.66143799 484.54013062 C443.52199136 488.38368396 447.49824046 492.03037027 451.62053776 495.59136677 C453.75603231 497.45396748 455.78926158 499.39881436 457.79858398 501.39648438 C458.55876831 502.15028885 459.31895264 502.90409332 460.10217285 503.68074036 C460.89208618 504.46954086 461.68199951 505.25834137 462.49584961 506.07104492 C463.32797974 506.89984665 464.16010986 507.72864838 465.01745605 508.58256531 C466.75993172 510.32001137 468.50108494 512.05878463 470.2409668 513.79882812 C472.91687466 516.47252652 475.60070818 519.13810024 478.28491211 521.8034668 C479.98071273 523.49633735 481.67604249 525.18967973 483.37084961 526.88354492 C484.17695679 527.68246658 484.98306396 528.48138824 485.81359863 529.30451965 C486.54856567 530.04256332 487.28353271 530.78060699 488.04077148 531.54101562 C488.69170776 532.19052689 489.34264404 532.84003815 490.01330566 533.50923157 C491.40209961 535.14526367 491.40209961 535.14526367 491.40209961 537.14526367 C491.95897461 537.37213867 492.51584961 537.59901367 493.08959961 537.83276367 C497.97075725 540.60315044 501.34727851 545.21731649 504.92944336 549.44995117 C506.97290019 551.80236567 509.17105606 553.97142637 511.40209961 556.14526367 C512.48491211 557.25901367 512.48491211 557.25901367 513.58959961 558.39526367 C515.96619487 560.7190457 518.39041428 562.92136215 520.87802124 565.12338257 C526.64693159 570.30590768 532.13309602 575.74959383 537.59985352 581.24536133 C538.68170559 582.32913797 539.76378955 583.41268318 540.84608459 584.49601746 C543.15604639 586.80911373 545.46445221 589.12374719 547.77162552 591.43962479 C551.42636062 595.10800577 555.08501759 598.7724589 558.74423218 602.43637085 C566.5081732 610.21135816 574.26785795 617.99058695 582.02709961 625.77026367 C590.41374428 634.17898144 598.80114208 642.58694003 607.19343698 650.9900192 C610.82465184 654.62618996 614.45342102 658.26477803 618.08028054 661.90529275 C620.34180134 664.17431427 622.60542931 666.44122483 624.86961174 668.7075901 C625.91209076 669.75192832 626.95371158 670.79712408 627.9943676 671.84327888 C633.11361704 676.98870699 638.2530427 682.03901558 643.77765465 686.75032139 C647.86138761 690.25710181 651.59677974 694.15536647 655.40209961 697.95776367 C656.2722168 698.81563477 657.14233398 699.67350586 658.03881836 700.55737305 C658.85995117 701.37657227 659.68108398 702.19577148 660.52709961 703.03979492 C661.27217773 703.78076416 662.01725586 704.5217334 662.78491211 705.28515625 C664.40209961 707.14526367 664.40209961 707.14526367 664.40209961 709.14526367 C664.9982457 709.40384659 665.59439178 709.6624295 666.20860291 709.92884827 C668.58717797 711.24789987 669.78668741 712.51040039 671.49804688 714.60791016 C676.00906564 719.93165903 680.92996528 724.8177982 685.86694336 729.74291992 C686.86925042 730.7459027 687.87140917 731.7490337 688.87342834 732.75230408 C690.96201495 734.84235505 693.05237349 736.93061255 695.14404297 739.01757812 C697.8044037 741.67224237 700.46024803 744.33137251 703.11476803 746.99187565 C705.17976567 749.06051316 707.24717164 751.12673066 709.31527901 753.19225883 C710.29466372 754.17098372 711.27332642 755.15043174 712.25120354 756.13066292 C717.21474469 761.10353271 722.22007267 765.94170761 727.55104065 770.51881409 C730.67863964 773.26690704 733.59702385 776.21703133 736.52709961 779.17260742 C737.15946533 779.80638809 737.79183105 780.44016876 738.44335938 781.09315491 C740.43199947 783.08732345 742.41710488 785.0849672 744.40209961 787.08276367 C745.76254279 788.44823113 747.12321792 789.81346753 748.48413086 791.1784668 C751.79280271 794.49807253 755.09831283 797.82079641 758.40209961 801.14526367 C762.72984605 797.51679173 766.8649664 793.79748446 770.83569336 789.77416992 C771.55813988 789.04604347 771.55813988 789.04604347 772.29518127 788.3032074 C774.31952009 786.26280224 776.33775093 784.21639737 778.35644531 782.17041016 C779.84735532 780.66116237 781.34146067 779.15512709 782.83569336 777.64916992 C783.71281982 776.76044189 784.58994629 775.87171387 785.49365234 774.95605469 C787.60534053 772.8677029 789.80347807 770.92034934 792.05885315 768.98851013 C796.49474198 765.11918854 800.65619808 761.01797447 804.80249023 756.8425293 C805.60035446 756.0432048 806.39821869 755.24388031 807.22026062 754.42033386 C808.93952112 752.69728974 810.6576262 750.9730921 812.37467957 749.24784851 C815.09711916 746.51256116 817.82274392 743.78048349 820.54919434 741.04919434 C826.33631193 735.25068876 832.11952034 729.44829463 837.90209961 723.64526367 C844.60669392 716.91695671 851.31297902 710.19035495 858.02348328 703.46794128 C860.69981123 700.78516301 863.37309288 698.09937476 866.04626465 695.41345215 C867.69793014 693.7581518 869.3497375 692.102993 871.00170898 690.44799805 C872.10388008 689.33807747 872.10388008 689.33807747 873.22831726 688.20573425 C877.21403581 684.21961305 881.30326779 680.43179397 885.57172775 676.75076866 C888.14857171 674.49049799 890.54726125 672.10446203 892.96020508 669.66894531 C893.4555928 669.17049103 893.95098053 668.67203674 894.46138 668.15847778 C895.51930716 667.09348361 896.57609404 666.02735566 897.63180161 664.96016121 C899.30202559 663.27233644 900.97594968 661.5882606 902.65090942 659.90513611 C907.40629642 655.12545752 912.15576824 650.33993115 916.90112305 645.55029297 C919.8173978 642.60731721 922.73846044 639.66916572 925.66257095 636.73397636 C926.77368189 635.61664808 927.88289052 634.49742478 928.99016953 633.3762989 C930.52908558 631.81827659 932.0739625 630.26641062 933.62036133 628.71582031 C934.49779999 627.83092422 935.37523865 626.94602814 936.27926636 626.03431702 C938.40209961 624.14526367 938.40209961 624.14526367 940.40209961 624.14526367 C940.40209961 623.48526367 940.40209961 622.82526367 940.40209961 622.14526367 C941.87084961 620.69995117 941.87084961 620.69995117 943.90209961 619.02026367 C949.59195354 614.17335107 954.8490574 609.00922959 959.71459961 603.33276367 C965.28162156 596.87603502 971.30607283 590.75463911 977.81225586 585.24291992 C984.70175026 579.26659891 990.98980182 572.62270818 997.40209961 566.14526367 C1000.04492376 563.47558935 1002.69121785 560.80942359 1005.33959961 558.14526367 C1005.92942627 557.54713867 1006.51925293 556.94901367 1007.12695312 556.33276367 C1010.07505695 553.36770008 1013.0746891 550.52704883 1016.24511719 547.80004883 C1021.04846011 543.64715182 1025.5020232 539.17049306 1029.97631836 534.66870117 C1030.86317825 533.78042633 1031.75003815 532.89215149 1032.66377258 531.97695923 C1034.99967045 529.63644448 1037.33338778 527.2937851 1039.66601562 524.95001221 C1042.03520224 522.57056629 1044.40724172 520.19396812 1046.77905273 517.81713867 C1050.25338131 514.33467179 1053.72641085 510.85092136 1057.19775391 507.36547852 C1060.26236484 504.28855253 1063.32981615 501.21453214 1066.40209961 498.14526367 C1069.82228987 494.72809745 1073.23395379 491.30271091 1076.64038086 487.87182617 C1078.14869191 486.3561312 1079.6574901 484.84092304 1081.16650391 483.32592773 C1082.19410531 482.29330257 1083.22080675 481.259781 1084.24658203 480.2253418 C1085.75039914 478.70921217 1087.25758603 477.19649883 1088.76538086 475.68432617 C1089.65523682 474.7892334 1090.54509277 473.89414063 1091.46191406 472.97192383 C1093.54394346 470.92688798 1095.70283038 469.01160425 1097.92089844 467.11547852 C1104.13089577 461.72543517 1109.9030394 455.87130737 1115.73803711 450.08276367 C1116.68469175 449.14409454 1116.68469175 449.14409454 1117.65047073 448.1864624 C1120.99145427 444.87206304 1124.32884668 441.55409034 1127.66381836 438.23364258 C1130.39549252 435.51527505 1133.13423253 432.80435061 1135.87963867 430.09985352 C1139.22653557 426.80278976 1142.56050433 423.4931379 1145.88609695 420.17459106 C1147.14066927 418.92664585 1148.39942141 417.68288546 1149.66276169 416.44381714 C1161.81435083 404.51247821 1170.7457677 391.6329352 1178.02709961 376.20776367 C1178.5755957 375.05099121 1179.1240918 373.89421875 1179.68920898 372.70239258 C1190.56344929 349.247207 1198.34733602 323.06655547 1198.61303711 297.03588867 C1198.63853579 295.4750846 1198.66485458 293.91429376 1198.69189453 292.35351562 C1198.70513763 291.54484039 1198.71838074 290.73616516 1198.73202515 289.90298462 C1199.52029924 246.04729967 1207.04858934 203.82784304 1226.40209961 164.14526367 C1227.04279865 162.79764262 1227.68342334 161.44998622 1228.32397461 160.10229492 C1238.43211508 139.12390235 1250.89152423 119.5345095 1266.40209961 102.14526367 C1267.05936035 101.40187744 1267.71662109 100.65849121 1268.39379883 99.89257812 C1280.07170809 86.77701352 1292.35678743 73.74915173 1306.40209961 63.14526367 C1307.39854492 62.35506836 1308.39499023 61.56487305 1309.42163086 60.75073242 C1317.43970576 54.4083506 1325.77145851 48.62156976 1334.40209961 43.14526367 C1335.33602539 42.55044189 1335.33602539 42.55044189 1336.28881836 41.94360352 C1372.26194227 19.29351545 1412.17528058 7.03292762 1454.11914062 1.51489258 C1456.55670264 1.18291708 1456.55670264 1.18291708 1459.40209961 0.14526367 C1461.26609995 0.04687948 1463.13341831 0.0070355 1465 0 C1466.14872086 -0.00637985 1467.29744171 -0.0127597 1468.48097229 -0.01933289 C1470.34652016 -0.02100212 1470.34652016 -0.02100212 1472.24975586 -0.02270508 C1473.53136093 -0.02603348 1474.812966 -0.02936188 1476.13340759 -0.03279114 C1478.85115397 -0.03878112 1481.56886858 -0.04063143 1484.28662109 -0.04003906 C1487.74392913 -0.03993804 1491.20102903 -0.05352858 1494.658288 -0.07081127 C1497.98044638 -0.0847183 1501.30256883 -0.08402345 1504.62475586 -0.08520508 C1506.4690493 -0.09598335 1506.4690493 -0.09598335 1508.3506012 -0.10697937 C1515.30825387 -0.08869582 1521.64032955 0.54055843 1528.40209961 2.14526367 C1530.40169035 2.50263152 1532.40278349 2.85181742 1534.40600586 3.18823242 C1550.06240462 5.89641138 1565.21009995 9.49971009 1580.40209961 14.14526367 C1581.23032227 14.3938916 1582.05854492 14.64251953 1582.91186523 14.89868164 C1626.16812291 27.99601485 1662.8926036 54.45169319 1695.40209961 85.14526367 C1696.08014648 85.78077148 1696.75819336 86.4162793 1697.45678711 87.07104492 C1701.7211868 91.18805752 1705.38667062 95.72500309 1709.09350586 100.34448242 C1711.2160675 102.9195699 1713.42723609 105.3422666 1715.71459961 107.77026367 C1730.29435611 123.87138607 1741.12687038 143.53042635 1750.4074707 163.05688477 C1751.08777729 164.48529482 1751.77599197 165.90995809 1752.47094727 167.33129883 C1769.9258528 203.14195857 1778.0126778 241.95235745 1777.79321289 281.63330078 C1777.77712585 285.07714515 1777.79317387 288.51981369 1777.81225586 291.96362305 C1777.83254388 311.77072642 1776.16004473 331.28085793 1771.27709961 350.52026367 C1770.82379272 352.33204102 1770.82379272 352.33204102 1770.36132812 354.18041992 C1762.77352709 383.63147428 1750.729793 411.46632223 1734.40209961 437.14526367 C1733.76401367 438.16491211 1733.12592773 439.18456055 1732.46850586 440.23510742 C1717.89422275 462.80858126 1699.93709255 484.38429603 1678.82788086 501.09448242 C1675.93661208 503.53879178 1673.58172747 506.21683935 1671.18164062 509.13256836 C1669.45935338 511.08050856 1667.68349962 512.71555318 1665.69897461 514.39135742 C1661.38972909 518.10971959 1657.35124105 522.04777611 1653.33959961 526.08276367 C1652.6712207 526.74727539 1652.0028418 527.41178711 1651.31420898 528.09643555 C1646.80510134 532.61430725 1642.55439352 537.29912709 1638.40209961 542.14526367 C1637.5128846 543.166191 1636.6235702 544.18703178 1635.73413086 545.20776367 C1624.64078434 558.14140178 1614.5405682 571.76329925 1605.40209961 586.14526367 C1604.93835937 586.87132812 1604.47461914 587.59739258 1603.99682617 588.34545898 C1590.2122396 610.10429537 1579.19734651 633.21494804 1572.21459961 658.02026367 C1571.97628418 658.85710693 1571.73796875 659.6939502 1571.49243164 660.55615234 C1567.45283587 675.54234395 1565.95484446 690.18730595 1566.02114868 705.6424408 C1566.01768214 707.43302413 1566.01291095 709.22360532 1566.00696695 711.01418215 C1565.99456302 715.88113133 1566.00057853 720.7479017 1566.0099256 725.61485112 C1566.01676017 730.88505077 1566.00621288 736.15522132 1565.99798584 741.42541504 C1565.98469054 751.73119357 1565.98750818 762.03690632 1565.99622376 772.34268736 C1566.00301981 780.72875934 1566.00390873 789.11481297 1566.00065231 797.50088692 C1566.00019261 798.69793472 1565.99973292 799.89498252 1565.99925929 801.1283045 C1565.99830002 803.56077715 1565.99732738 805.99324979 1565.99634151 808.42572243 C1565.98779906 831.20447471 1565.99760204 853.9831907 1566.01374261 876.76193703 C1566.02712925 896.25634862 1566.02482911 915.75070657 1566.01098633 935.24511719 C1565.99488349 957.93262204 1565.98863916 980.62009508 1565.99782312 1003.30760485 C1565.99877866 1005.73350274 1565.99972177 1008.15940064 1566.00065231 1010.58529854 C1566.00134655 1012.37521698 1566.00134655 1012.37521698 1566.00205482 1014.20129539 C1566.00463179 1022.56103824 1566.00030145 1030.92076072 1565.99321365 1039.28050041 C1565.98474532 1049.49230029 1565.98718907 1059.70403111 1566.00305589 1069.91582321 C1566.01086992 1075.11414078 1566.01414976 1080.31234379 1566.00410843 1085.51066017 C1565.69610784 1124.50327252 1565.69610784 1124.50327252 1572.46459961 1162.77026367 C1572.76277588 1163.86886719 1573.06095215 1164.9674707 1573.36816406 1166.09936523 C1585.94203985 1210.63516039 1611.88472615 1248.12584736 1643.02709961 1281.65698242 C1644.41137567 1283.15530396 1645.78340688 1284.66395267 1647.15209961 1286.17651367 C1655.1467351 1295.00111576 1663.31129624 1303.58265586 1672.36694336 1311.33666992 C1677.76389408 1316.13280847 1682.92416276 1321.26671231 1687.52709961 1326.83276367 C1689.51447445 1329.22201763 1691.58044817 1331.21518804 1693.96459961 1333.20776367 C1727.43201362 1361.903208 1749.84352302 1405.24418799 1764.40209961 1446.14526367 C1764.64412109 1446.81525391 1764.88614258 1447.48524414 1765.13549805 1448.17553711 C1768.37553678 1457.27714372 1770.51693762 1466.59775877 1772.58959961 1476.02026367 C1772.83983887 1477.14247314 1773.09007813 1478.26468262 1773.34790039 1479.42089844 C1777.0178148 1496.71961939 1777.75088155 1513.67421913 1777.71777344 1531.31103516 C1777.71462 1534.81013383 1777.73814208 1538.30837845 1777.76342773 1541.80737305 C1777.82056471 1561.59244406 1775.90512932 1580.76581104 1771.27709961 1600.02026367 C1770.97707031 1601.2785498 1770.67704102 1602.53683594 1770.36791992 1603.83325195 C1763.73284721 1630.66775855 1752.64497325 1656.4709286 1738.40209961 1680.14526367 C1737.56485352 1681.54131836 1737.56485352 1681.54131836 1736.71069336 1682.96557617 C1724.98421738 1701.89747715 1711.47414327 1719.301126 1695.77709961 1735.08276367 C1694.91866455 1735.94675781 1694.06022949 1736.81075195 1693.17578125 1737.70092773 C1687.99458382 1742.82437532 1682.62257143 1747.56426725 1676.93188477 1752.11523438 C1674.38033583 1754.16272804 1671.88949271 1756.27056154 1669.40209961 1758.39526367 C1651.18725362 1773.24657276 1630.59468744 1785.10465244 1609.40209961 1795.14526367 C1608.24838867 1795.7047168 1607.09467773 1796.26416992 1605.90600586 1796.84057617 C1574.84744402 1811.21644441 1539.52680269 1820.41765198 1505.25366211 1820.48120117 C1503.95802338 1820.48785797 1502.66238464 1820.49451477 1501.32748413 1820.50137329 C1498.60313588 1820.51322214 1495.87891313 1820.51706761 1493.15454102 1820.51586914 C1490.42054497 1820.5157076 1487.68722628 1820.52945586 1484.95336914 1820.55688477 C1467.05595319 1820.73362217 1449.97033412 1819.68744947 1432.40209961 1816.14526367 C1431.42408386 1815.95088211 1430.44606812 1815.75650055 1429.43841553 1815.55622864 C1386.22831142 1806.88554029 1344.93912546 1787.51038872 1310.40209961 1760.14526367 C1309.0427832 1759.07405273 1309.0427832 1759.07405273 1307.65600586 1757.98120117 C1301.57825403 1753.10175786 1295.8213828 1747.94251873 1290.12866211 1742.62573242 C1288.38570056 1741.04008688 1286.5937437 1739.5057115 1284.74584961 1738.04370117 C1282.63245995 1736.33185555 1281.0005943 1734.67171143 1279.27709961 1732.58276367 C1276.38023811 1729.17690915 1273.30269031 1726.06662153 1270.08959961 1722.95776367 C1225.14804071 1678.78562027 1200.82010231 1607.01415546 1199.16821289 1545.35131836 C1198.23023962 1513.80978226 1190.77154339 1482.71813061 1177.40209961 1454.14526367 C1177.09336914 1453.4755957 1176.78463867 1452.80592773 1176.46655273 1452.1159668 C1172.57627722 1443.7514632 1168.11545297 1435.75969972 1163.40209961 1427.83276367 C1162.92804688 1427.03298096 1162.45399414 1426.23319824 1161.96557617 1425.40917969 C1154.42911977 1412.95458431 1145.63127503 1402.94422893 1135.33959961 1392.75463867 C1133.9795567 1391.39766198 1132.62011134 1390.04008616 1131.26123047 1388.6819458 C1128.42829548 1385.85358386 1125.59056392 1383.03016311 1122.7487793 1380.21069336 C1119.12430319 1376.61455099 1115.50860673 1373.00974197 1111.89604187 1369.40163803 C1108.42203909 1365.93281274 1104.94338269 1362.46866868 1101.46459961 1359.00463867 C1100.81151825 1358.35343803 1100.15843689 1357.7022374 1099.48556519 1357.03130341 C1097.61785079 1355.17053869 1095.74681802 1353.31317643 1093.87475586 1351.45678711 C1093.33634064 1350.91948975 1092.79792542 1350.38219238 1092.24319458 1349.82861328 C1089.40332786 1347.01986463 1086.49807493 1344.34446758 1083.46484375 1341.74490356 C1079.32838626 1338.15917366 1075.62750152 1334.265936 1071.92553711 1330.23950195 C1063.80840913 1321.51796256 1055.45791626 1313.0546063 1047.02709961 1304.63745117 C1045.52199044 1303.13166549 1044.01702948 1301.62573165 1042.51220703 1300.11965942 C1039.39460072 1297.0005965 1036.27523826 1293.88330426 1033.15454102 1290.76733398 C1029.1727571 1286.7912912 1025.1955421 1282.81071292 1021.21960449 1278.828825 C1018.12778776 1275.73338523 1015.03358182 1272.64034255 1011.93865967 1269.54800797 C1010.47083362 1268.08084405 1009.00373628 1266.61295068 1007.53741455 1265.14428329 C1005.49082404 1263.09513241 1003.44102026 1261.04924842 1001.39038086 1259.00415039 C1000.79907883 1258.41082413 1000.20777679 1257.81749786 999.59855652 1257.20619202 C996.67186013 1254.29401361 993.6920663 1251.49971431 990.56217957 1248.80633545 C985.77192936 1244.65890962 981.32174177 1240.19729698 976.85253906 1235.70922852 C975.47295013 1234.32985863 975.47295013 1234.32985863 974.06549072 1232.92262268 C971.56553155 1230.42294814 969.06864895 1227.92022145 966.57234216 1225.41690016 C963.94865596 1222.78691546 961.32209227 1220.15980753 958.69584656 1217.53237915 C953.72765565 1212.56109056 948.76201601 1207.58726182 943.79731005 1202.61249316 C938.1614026 1196.96540872 932.52265841 1191.32116049 926.88366759 1185.67715526 C917.24162752 1176.02644551 907.60170322 1166.37362717 897.9641571 1156.71842957 C893.4000886 1152.14604012 893.4000886 1152.14604012 888.83325195 1147.57641602 C885.33361536 1144.07677942 881.83823625 1140.57289778 878.34228516 1137.06958008 C870.2105146 1128.92142931 862.07618499 1120.77583718 853.94037151 1112.6317234 C849.02301211 1107.7092102 844.10659899 1102.78575872 839.19238281 1097.86010742 C834.4297303 1093.08637868 829.66443137 1088.31530641 824.89753151 1083.54581833 C823.08625729 1081.73270283 821.2758604 1079.91871044 819.46637535 1078.10380936 C816.92995846 1075.56009939 814.39039436 1073.0195709 811.85009766 1070.47973633 C810.74085686 1069.36510262 810.74085686 1069.36510262 809.60920715 1068.22795105 C805.59848962 1064.22508571 801.49853295 1060.39344631 797.19291496 1056.70868397 C794.17235899 1054.07167368 791.35234051 1051.238345 788.52319336 1048.39916992 C787.90742935 1047.78436264 787.29166534 1047.16955536 786.65724182 1046.53611755 C785.36792319 1045.24747342 784.07984228 1043.95758979 782.79296875 1042.66650391 C780.84413091 1040.71230744 778.89000689 1038.7635122 776.93530273 1036.81518555 C770.88019241 1030.76297171 764.90260967 1024.71471147 759.40209961 1018.14526367 C753.94192518 1022.69308925 748.9011729 1027.52828155 743.90600586 1032.57885742 C743.11363022 1033.37501968 742.32125458 1034.17118195 741.50486755 1034.99147034 C738.14248325 1038.37007575 734.78609948 1041.75461902 731.42919922 1045.13867188 C728.9652323 1047.62082835 726.49818894 1050.09989833 724.03100586 1052.57885742 C723.28492569 1053.33323593 722.53884552 1054.08761444 721.77015686 1054.86485291 C721.05258713 1055.58572586 720.3350174 1056.30659882 719.59570312 1057.04931641 C718.97728043 1057.67297592 718.35885773 1058.29663544 717.72169495 1058.93919373 C715.75279922 1060.81172797 713.74554983 1062.58671593 711.68797302 1064.35939026 C707.13757389 1068.31907681 702.88409629 1072.53717882 698.63452148 1076.81518555 C697.79764297 1077.65352432 696.96076447 1078.4918631 696.098526 1079.35560608 C694.29414272 1081.16377467 692.49091491 1082.9730969 690.68873596 1084.78346252 C687.83187243 1087.65316603 684.97190305 1090.51973942 682.11096191 1093.38537598 C676.03835475 1099.46902935 669.96999977 1105.55691602 663.90209961 1111.64526367 C657.34864374 1118.22080326 650.79443471 1124.7955818 644.23531199 1131.36546946 C640.94329612 1134.66322424 637.65520982 1137.96486637 634.36779785 1141.26721191 C632.63524032 1143.00340408 630.90254104 1144.73945482 629.16967773 1146.4753418 C628.01140221 1147.64136681 628.01140221 1147.64136681 626.82972717 1148.83094788 C622.74050382 1152.92056533 618.56926163 1156.84214636 614.17149925 1160.59916782 C611.232009 1163.16768517 608.51485748 1165.94767327 605.78491211 1168.73510742 C604.58972532 1169.94291412 603.39440929 1171.15059295 602.19897461 1172.3581543 C600.34715594 1174.23497747 598.49700467 1176.11339462 596.64916992 1177.99414062 C594.84455361 1179.82877086 593.03391876 1181.65728417 591.22241211 1183.48510742 C590.38965256 1184.33805641 590.38965256 1184.33805641 589.54006958 1185.20823669 C588.19823254 1186.55888416 586.8045522 1187.85766826 585.40209961 1189.14526367 C584.74209961 1189.14526367 584.08209961 1189.14526367 583.40209961 1189.14526367 C583.17522461 1189.70213867 582.94834961 1190.25901367 582.71459961 1190.83276367 C580.14623925 1195.35797001 575.89249929 1198.64300025 572.05102539 1202.09008789 C567.34241682 1206.31591698 562.98072338 1210.5925097 558.90991211 1215.44995117 C556.66304285 1217.97622386 553.99629419 1219.98343486 551.40209961 1222.14526367 C550.34994735 1223.31411137 549.31917732 1224.50238154 548.30444336 1225.70385742 C544.0746463 1230.59327628 539.54529209 1235.14890134 534.96459961 1239.70776367 C533.75320313 1240.92496094 533.75320313 1240.92496094 532.51733398 1242.16674805 C528.21500592 1246.46214246 523.83088622 1250.57974089 519.22216797 1254.54345703 C516.48544979 1256.95198929 513.94361722 1259.53392414 511.40209961 1262.14526367 C508.27562528 1265.35763015 505.10358167 1268.43489746 501.6973877 1271.35217285 C497.47212514 1275.03417058 493.49911644 1278.92054749 489.55249023 1282.8972168 C488.81314743 1283.63801987 488.07380463 1284.37882294 487.3120575 1285.14207458 C485.72048097 1286.73743185 484.1300598 1288.33394242 482.54069519 1289.9315033 C480.0198917 1292.46516779 477.49589246 1294.99561002 474.97106934 1297.52526855 C469.61192665 1302.89579276 464.25672318 1308.27023422 458.90209961 1313.64526367 C452.69311622 1319.87790882 446.48249561 1326.10890398 440.2676239 1332.3356781 C437.79072474 1334.81902178 435.3168762 1337.30537664 432.84313965 1339.79187012 C431.31281226 1341.32583275 429.78234276 1342.85965363 428.25170898 1344.39331055 C427.57303268 1345.07715317 426.89435638 1345.76099579 426.19511414 1346.46556091 C422.3417735 1350.31932119 418.37337009 1353.96929285 414.24862862 1357.53045082 C411.70813375 1359.75214555 409.29874698 1362.09116205 406.89501953 1364.45947266 C406.40433487 1364.94197983 405.91365021 1365.424487 405.40809631 1365.9216156 C403.81332802 1367.49193163 402.22239921 1369.06604347 400.63256836 1370.64135742 C400.07994135 1371.18866076 399.52731434 1371.73596409 398.95794106 1372.29985237 C396.03078199 1375.20044748 393.10720335 1378.10460288 390.18603516 1381.01123047 C387.80071317 1383.38326782 385.40836209 1385.74784166 383.00927734 1388.10595703 C364.45651692 1406.17641497 364.45651692 1406.17641497 349.40209961 1427.14526367 C348.26368006 1428.9257895 347.1244619 1430.7058052 345.98413086 1432.48510742 C345.05314878 1434.01293077 344.1298011 1435.54543545 343.21459961 1437.08276367 C342.71613525 1437.9192041 342.2176709 1438.75564453 341.70410156 1439.61743164 C319.60748366 1477.27831243 311.31739754 1517.97276771 309.76147461 1561.14916992 C309.43927738 1570.0555467 309.07260394 1578.59144188 306.58959961 1587.20776367 C305.27913914 1591.84860739 304.08030141 1596.48316568 303.04760742 1601.19384766 C300.82110644 1611.28787261 297.61700994 1620.97937921 294.22924805 1630.73706055 C293.42293662 1633.0845977 292.65088802 1635.44131603 291.88256836 1637.80151367 C281.26373192 1669.71050487 260.89301771 1701.32749435 237.40209961 1725.14526367 C236.56404785 1726.0023291 235.72599609 1726.85939453 234.86254883 1727.74243164 C232.39291337 1730.26637339 229.91403936 1732.78097821 227.42941284 1735.29016113 C226.42929532 1736.30029042 225.43032807 1737.3115602 224.43264771 1738.32409668 C217.77667438 1745.06487112 210.85591147 1751.28196724 203.40209961 1757.14526367 C202.79495117 1757.63196533 202.18780273 1758.11866699 201.56225586 1758.62011719 C160.61923403 1791.35777586 112.02278706 1811.17897811 60.40209961 1819.14526367 C59.23928467 1819.32484619 58.07646973 1819.50442871 56.87841797 1819.68945312 C50.93235673 1820.40943933 44.9539431 1820.34771874 38.97241211 1820.38354492 C37.66924042 1820.39161667 36.36606873 1820.39968842 35.02340698 1820.40800476 C32.26145568 1820.42297415 29.49952937 1820.43283153 26.73754883 1820.44042969 C23.96257817 1820.44917873 21.18812655 1820.46979379 18.41333008 1820.50195312 C-22.41165929 1820.96446346 -62.65437789 1813.00839202 -99.59790039 1795.14526367 C-100.24194824 1794.83766113 -100.88599609 1794.53005859 -101.54956055 1794.21313477 C-132.97637168 1779.13102015 -160.44727109 1759.22761769 -185.59790039 1735.14526367 C-186.17894531 1734.59290039 -186.75999023 1734.04053711 -187.35864258 1733.47143555 C-195.04891948 1726.13011434 -201.89810467 1718.45142266 -208.25952148 1709.93237305 C-209.59252867 1708.15243642 -210.9470456 1706.3906395 -212.30493164 1704.62963867 C-230.07735713 1681.3130826 -243.80463339 1654.71373914 -253.59790039 1627.14526367 C-253.88358887 1626.34733398 -254.16927734 1625.5494043 -254.46362305 1624.72729492 C-257.94976171 1614.82573651 -260.51907398 1604.75145584 -262.84790039 1594.52026367 C-263.09435303 1593.44873047 -263.34080566 1592.37719727 -263.59472656 1591.27319336 C-267.42138713 1573.77610866 -267.94383289 1556.71526541 -267.91357422 1538.86376953 C-267.91042066 1534.98270377 -267.93392691 1531.10240733 -267.95922852 1527.22143555 C-268.01189328 1507.14223259 -266.24868168 1488.00990589 -261.34790039 1468.52026367 C-261.04416504 1467.2944458 -260.74042969 1466.06862793 -260.42749023 1464.80566406 C-255.92925232 1447.09921697 -249.43558455 1430.62032503 -241.59790039 1414.14526367 C-241.26145508 1413.4338623 -240.92500977 1412.72246094 -240.57836914 1411.98950195 C-225.91685723 1381.19886663 -206.1020813 1354.92377726 -181.70336914 1331.203125 C-179.83761424 1329.37955728 -177.9881075 1327.54114614 -176.14544678 1325.69429016 C-174.19558049 1323.74255899 -172.24068587 1321.79591363 -170.28588867 1319.84912109 C-166.22910269 1315.80834447 -162.17452881 1311.76535759 -158.12156868 1307.72074413 C-155.68092434 1305.2853121 -153.23935314 1302.85082449 -150.7956543 1300.41845703 C-147.95867859 1297.59454248 -145.12586581 1294.76648316 -142.29321289 1291.93823242 C-141.42632843 1291.07650925 -140.55944397 1290.21478607 -139.66629028 1289.32695007 C-134.7682845 1284.42939315 -130.08125868 1279.42479153 -125.59790039 1274.14526367 C-124.65008916 1273.04230848 -123.70219003 1271.9394288 -122.75415039 1270.83666992 C-117.54702177 1264.71824588 -112.4617162 1258.54211893 -107.59790039 1252.14526367 C-106.93661133 1251.31510742 -106.27532227 1250.48495117 -105.59399414 1249.62963867 C-76.31600924 1212.12867768 -59.47936187 1163.47619374 -59.43054199 1116.10517883 C-59.42508958 1114.25438113 -59.41922544 1112.40358461 -59.41298628 1110.55278939 C-59.39719046 1105.47753467 -59.38763751 1100.40228476 -59.37922144 1095.32701313 C-59.37119707 1090.97063256 -59.35951064 1086.61426484 -59.34780663 1082.25789282 C-59.30596435 1066.65396039 -59.27868657 1051.0500128 -59.25415039 1035.44604492 C-59.25217549 1034.2129929 -59.25020059 1032.97994088 -59.24816585 1031.70952365 C-59.21004526 1007.86305233 -59.176516 984.01657467 -59.15490669 960.17008225 C-59.14941373 954.1130625 -59.14371392 948.05604293 -59.13793945 941.99902344 C-59.13699081 940.99522321 -59.13699081 940.99522321 -59.13602301 939.9711442 C-59.11538388 918.31809141 -59.06946397 896.66518945 -59.00928677 875.01221313 C-58.94566168 852.07641092 -58.90814893 829.1406748 -58.89861059 806.20478123 C-58.89272261 793.71995169 -58.87519402 781.23538033 -58.82722473 768.75063515 C-58.7863733 758.1089951 -58.76984081 747.46765547 -58.78387755 736.82594059 C-58.79029044 731.40837725 -58.78591267 725.99145202 -58.75000381 720.57398987 C-58.5165151 683.38196861 -64.25513944 652.46779907 -80.22216797 618.61401367 C-82.4639439 613.83627013 -84.33013535 609.27235766 -85.59790039 604.14526367 C-86.25790039 604.14526367 -86.91790039 604.14526367 -87.59790039 604.14526367 C-87.98719727 603.29706055 -88.37649414 602.44885742 -88.77758789 601.57495117 C-92.58854626 593.58423202 -96.93402001 586.55375223 -102.19555664 579.44604492 C-104.29843143 576.59924019 -106.19027464 573.66737611 -108.03540039 570.64526367 C-114.63562987 560.10344516 -122.90379738 550.67467646 -130.97290039 541.24291992 C-133.44906996 538.34047994 -135.83751203 535.37285783 -138.22290039 532.39526367 C-141.7389217 528.06930174 -145.49397849 524.14189485 -149.48461914 520.25463867 C-151.43685097 518.3060154 -153.24490936 516.30435739 -155.03540039 514.20776367 C-161.15222885 507.09978246 -167.84777686 500.5583427 -175.10180664 494.61791992 C-176.59790039 493.14526367 -176.59790039 493.14526367 -177.59790039 490.14526367 C-178.42741211 489.75661133 -178.42741211 489.75661133 -179.27368164 489.36010742 C-182.8102665 487.51157315 -185.12631144 484.64172997 -187.78540039 481.70776367 C-188.65467163 480.7567981 -188.65467163 480.7567981 -189.54150391 479.78662109 C-203.88281369 463.98869431 -216.59766878 446.79125666 -227.31860352 428.34399414 C-228.15827792 426.90084382 -229.00570693 425.46217196 -229.86157227 424.02856445 C-244.6712314 399.20910061 -254.92297268 371.46574065 -260.59790039 343.14526367 C-260.76918457 342.29416016 -260.94046875 341.44305664 -261.11694336 340.56616211 C-269.69248101 296.99777445 -269.0337226 250.7491077 -255.59790039 208.14526367 C-255.33138672 207.28578125 -255.06487305 206.42629883 -254.7902832 205.54077148 C-243.53256609 169.55258824 -227.14413387 135.08847242 -201.95727539 106.69897461 C-200.56898425 105.11221369 -199.22082769 103.49813073 -197.87915039 101.87182617 C-186.43564631 88.07277466 -173.82347149 75.08447505 -159.59790039 64.14526367 C-158.8309082 63.51104492 -158.06391602 62.87682617 -157.27368164 62.22338867 C-115.44235129 27.65204127 -64.28756731 8.89556256 -11.0078125 1.54663086 C-1.76130228 0.00663868 -1.76130228 0.00663868 0 0 Z M-16.78540039 135.27026367 C-17.57019775 135.48199219 -18.35499512 135.6937207 -19.16357422 135.91186523 C-46.17636705 143.51899295 -69.72457676 157.43856578 -89.59790039 177.14526367 C-90.5221582 178.05663086 -91.44641602 178.96799805 -92.39868164 179.90698242 C-120.2641196 208.82090285 -135.17219425 247.70344146 -134.82568359 287.64355469 C-134.0919595 323.60292458 -121.37688223 358.02368475 -97.59790039 385.14526367 C-96.91469727 385.96124023 -96.23149414 386.7772168 -95.52758789 387.61791992 C-72.1943826 414.7825925 -39.25838346 431.20128431 -4.59790039 438.14526367 C-3.4596582 438.39147461 -2.32141602 438.63768555 -1.14868164 438.89135742 C17.89596742 442.3561932 38.53084559 441.01899216 57.40209961 437.14526367 C58.43584717 436.94441162 58.43584717 436.94441162 59.49047852 436.73950195 C98.80921965 428.91747122 135.32669587 402.38846645 157.54663086 369.56323242 C178.71892019 337.34083557 187.67024058 296.66821558 180.37866211 258.63354492 C174.41610754 230.32066935 162.41206868 204.45736419 142.40600586 183.27026367 C140.51992302 181.27020701 138.777353 179.20127369 137.02709961 177.08276367 C132.69550374 172.12238775 127.59886508 168.1596588 122.40209961 164.14526367 C121.55905273 163.48655273 120.71600586 162.8278418 119.84741211 162.14916992 C103.13884866 149.528872 84.7862272 140.73267464 64.58959961 135.27026367 C63.88657715 135.07907959 63.18355469 134.88789551 62.45922852 134.69091797 C50.44063127 131.66912275 38.32982844 130.80960998 25.99536133 130.88452148 C23.90278176 130.89526017 21.81106011 130.88453498 19.71850586 130.87182617 C7.35883435 130.85789754 -4.81688292 132.01647302 -16.78540039 135.27026367 Z M1452.40209961 134.14526367 C1451.61303223 134.33862305 1450.82396484 134.53198242 1450.01098633 134.73120117 C1426.64976112 140.67352656 1404.65343573 151.28805511 1386.40209961 167.14526367 C1385.57323242 167.86456055 1384.74436523 168.58385742 1383.89038086 169.32495117 C1381.36052485 171.56424179 1378.8751299 173.84347381 1376.40209961 176.14526367 C1375.6737793 176.8078418 1374.94545898 177.47041992 1374.19506836 178.15307617 C1359.33918925 192.23270214 1348.40133957 210.45859694 1340.40209961 229.14526367 C1339.70600586 230.72114258 1339.70600586 230.72114258 1338.99584961 232.32885742 C1329.32149037 256.42627053 1329.00568041 284.75298677 1332.40209961 310.14526367 C1332.54905273 311.2822168 1332.54905273 311.2822168 1332.69897461 312.44213867 C1337.62566578 349.00337314 1359.31232498 382.98877522 1388.2890625 405.30004883 C1389.98816956 406.58893064 1391.6941668 407.86811355 1393.40209961 409.14526367 C1394.62993164 410.08305664 1394.62993164 410.08305664 1395.88256836 411.03979492 C1429.06005387 435.42324813 1472.23817131 445.0377392 1512.83959961 439.02026367 C1529.07043266 436.33726181 1544.64504593 431.37951196 1559.40209961 424.14526367 C1560.48362305 423.62448242 1561.56514648 423.10370117 1562.67944336 422.56713867 C1592.08989316 407.58925818 1616.58080723 383.96623433 1630.52026367 354.0222168 C1631.32671713 352.30571232 1632.17114151 350.60717988 1633.01928711 348.91088867 C1649.85682976 314.53787413 1651.50259755 272.78048658 1639.15209961 236.70776367 C1635.92326721 227.83217636 1631.96543697 219.40636813 1627.40209961 211.14526367 C1627.05421387 210.5075 1626.70632813 209.86973633 1626.34790039 209.21264648 C1621.36145471 200.17086261 1615.61712185 192.2832669 1608.71459961 184.61352539 C1607.48493606 183.23793079 1606.28603096 181.83501416 1605.08959961 180.43041992 C1599.74389097 174.23512544 1593.88848565 169.11876359 1587.40209961 164.14526367 C1586.56163086 163.48913086 1585.72116211 162.83299805 1584.85522461 162.15698242 C1568.15129495 149.52779924 1549.78667546 140.73279588 1529.58959961 135.27026367 C1528.88657715 135.07907959 1528.18355469 134.88789551 1527.45922852 134.69091797 C1514.65898688 131.47259654 1501.77683432 130.76384711 1488.65209961 130.83276367 C1487.9085321 130.83491882 1487.1649646 130.83707397 1486.39886475 130.83929443 C1474.85316964 130.89284561 1463.6504089 131.35905468 1452.40209961 134.14526367 Z M141.40209961 582.14526367 C140.52682617 582.9109668 139.65155273 583.67666992 138.74975586 584.46557617 C136.27254002 586.66340676 133.83431293 588.89788176 131.40209961 591.14526367 C130.81041992 591.65959961 130.21874023 592.17393555 129.60913086 592.70385742 C113.46214787 607.47010077 103.63561255 630.07988734 98.77709961 650.89526367 C98.57060791 651.77577393 98.36411621 652.65628418 98.15136719 653.56347656 C94.94339954 667.93219958 94.10932027 681.80435155 94.14813232 696.46337891 C94.14582354 698.37954292 94.14264423 700.29570604 94.13867784 702.21186733 C94.13037857 707.43937255 94.13443283 712.66680414 94.14065027 717.89430952 C94.1451938 723.54674226 94.1381816 729.19916275 94.13269043 734.85159302 C94.12381503 745.90973749 94.12571018 756.96785474 94.13151571 768.02600026 C94.13603949 777.01626766 94.13664201 786.00652745 94.13446808 794.99679565 C94.13416161 796.27820008 94.13385515 797.5596045 94.13353939 798.87983936 C94.13289992 801.48329838 94.13225149 804.0867574 94.13159421 806.69021642 C94.12605865 830.38618629 94.13179122 854.08213868 94.14227941 877.77810572 C94.15176976 899.38389807 94.15092047 920.98966684 94.14135742 942.59545898 C94.13063515 966.90121064 94.12644562 991.20694562 94.13258195 1015.51270008 C94.13321902 1018.10637728 94.13384776 1020.70005448 94.13446808 1023.29373169 C94.13477663 1024.56974336 94.13508518 1025.84575502 94.13540308 1027.16043371 C94.13712716 1036.13592022 94.13422111 1045.11139834 94.12950897 1054.08688354 C94.12388956 1065.03067438 94.12543888 1075.97443653 94.13607046 1086.9182241 C94.14131288 1092.49778683 94.14340832 1098.07730182 94.13677216 1103.65686417 C94.13078095 1108.77165283 94.13413982 1113.8863498 94.14472726 1119.00113022 C94.1469479 1120.84413886 94.14585532 1122.68715536 94.14097568 1124.53015888 C94.10497538 1139.26600217 95.26651096 1153.26052179 99.02709961 1167.58276367 C99.28434814 1168.562854 99.54159668 1169.54294434 99.80664062 1170.55273438 C102.26039478 1179.41540714 105.86225278 1187.18747314 110.40209961 1195.14526367 C110.96799805 1196.19713867 111.53389648 1197.24901367 112.11694336 1198.33276367 C125.73361368 1222.93888792 146.79904614 1241.7978079 172.40209961 1253.14526367 C173.03647949 1253.42740723 173.67085937 1253.70955078 174.32446289 1254.00024414 C191.98477002 1261.72634396 209.89340526 1265.55138883 229.15209961 1265.45776367 C230.37856201 1265.45212402 231.60502441 1265.44648437 232.86865234 1265.44067383 C263.70643244 1265.02980175 291.37715359 1252.86627557 316.58959961 1235.70776367 C317.20633545 1235.28978516 317.82307129 1234.87180664 318.45849609 1234.44116211 C329.38435733 1226.85825619 338.81720793 1217.98457523 348.08959961 1208.52026367 C350.2358404 1206.33710176 352.3853867 1204.15727061 354.53881836 1201.98120117 C355.05568207 1201.45888412 355.57254578 1200.93656708 356.10507202 1200.39842224 C359.39358474 1197.09755764 362.78710686 1193.99843552 366.33105469 1190.97827148 C370.52046531 1187.27037393 374.45054242 1183.28277615 378.4050293 1179.32763672 C379.92211986 1177.81277281 381.44709698 1176.30613776 382.97241211 1174.79956055 C383.93904454 1173.83585567 384.90520858 1172.87168069 385.87084961 1171.90698242 C386.74161133 1171.04032959 387.61237305 1170.17367676 388.50952148 1169.28076172 C390.62318578 1167.371376 390.62318578 1167.371376 390.40209961 1165.14526367 C391.26837982 1164.76745003 391.26837982 1164.76745003 392.15216064 1164.38200378 C394.68856249 1162.98780156 396.36656992 1161.41436713 398.40112305 1159.35742188 C399.17582947 1158.5793367 399.95053589 1157.80125153 400.74871826 1156.99958801 C401.57792786 1156.15691879 402.40713745 1155.31424957 403.26147461 1154.44604492 C404.12468323 1153.57763474 404.98789185 1152.70922455 405.8772583 1151.8144989 C408.64032111 1149.03361782 411.39663335 1146.24617049 414.15209961 1143.45776367 C416.89409571 1140.68803898 419.63756796 1137.91981955 422.38409424 1135.15458679 C424.09212661 1133.43442277 425.79748 1131.71159306 427.49969482 1129.985672 C428.28700989 1129.19182602 429.07432495 1128.39798004 429.88549805 1127.58007812 C430.56626404 1126.89105911 431.24703003 1126.2020401 431.94842529 1125.49214172 C433.99229322 1123.53723322 436.07192013 1121.68314556 438.21099854 1119.83537292 C442.3062013 1116.27532303 446.15578232 1112.51957441 449.97631836 1108.66870117 C450.68640045 1107.95715881 451.39648254 1107.24561646 452.12808228 1106.51251221 C453.65581691 1104.98099846 455.18239623 1103.44833152 456.70791626 1101.91461182 C459.12790129 1099.48175832 461.55108804 1097.05213418 463.97509766 1094.62329102 C469.12025316 1089.46675763 474.2614673 1084.3063058 479.40209961 1079.14526367 C485.36326207 1073.16043365 491.32606533 1067.17725772 497.29312134 1061.19830322 C499.67030633 1058.81467697 502.04443828 1056.42803888 504.41845703 1054.04125977 C505.88811536 1052.56796598 507.35791593 1051.09481405 508.82788086 1049.62182617 C509.47850494 1048.96603577 510.12912903 1048.31024536 510.79946899 1047.63458252 C513.90015654 1044.5335436 517.04740603 1041.54541308 520.36767578 1038.6796875 C524.61388705 1035.01020702 528.57460827 1031.09930473 532.52709961 1027.11791992 C533.29570313 1026.34785614 534.06430664 1025.57779236 534.85620117 1024.78439331 C536.51161966 1023.1251926 538.16588275 1021.46483846 539.8190918 1019.80343628 C542.44071347 1017.16896049 545.06552539 1014.53770043 547.69116211 1011.90722656 C553.26429184 1006.32271196 558.83351193 1000.73430646 564.40209961 995.14526367 C570.85887217 988.66477343 577.31734222 982.18598838 583.7800293 975.71139526 C586.35664278 973.12833424 588.93020789 970.54226267 591.50366211 967.95605469 C593.09465855 966.3614232 594.68579698 964.76693336 596.27709961 963.17260742 C596.98382812 962.46071259 597.69055664 961.74881775 598.41870117 961.01535034 C602.36057294 957.0730654 606.41199248 953.32927996 610.63288879 949.68765068 C612.77089042 947.82375413 614.79656918 945.87108305 616.79858398 943.86230469 C617.55876831 943.10204483 618.31895264 942.34178497 619.10217285 941.55848694 C619.89208618 940.76341232 620.68199951 939.96833771 621.49584961 939.14916992 C622.32797974 938.31562485 623.16010986 937.48207977 624.01745605 936.62327576 C626.64804896 933.98713105 629.27512402 931.34751263 631.90209961 928.70776367 C633.69613816 926.90870388 635.49040676 925.10987347 637.28491211 923.3112793 C641.65997086 918.92525555 646.03215473 914.53638226 650.40209961 910.14526367 C646.17285811 905.09842836 641.75940146 900.35509703 637.09741211 895.70776367 C636.41460175 895.02399658 635.73179138 894.34022949 635.02828979 893.63574219 C633.59243491 892.19921094 632.15533299 890.76392515 630.71704102 889.32983398 C628.53669646 887.15483699 626.3617309 884.9745645 624.18725586 882.79370117 C622.78262835 881.3897347 621.37769055 879.9860786 619.97241211 878.58276367 C619.33256378 877.94089111 618.69271545 877.29901855 618.03347778 876.63769531 C614.20898438 872.8326244 610.26444244 869.22661584 606.18286133 865.69918823 C604.09622962 863.87835604 602.10803439 861.98047834 600.14819336 860.02416992 C599.43856445 859.31583008 598.72893555 858.60749023 597.99780273 857.87768555 C596.92949219 856.80357422 596.92949219 856.80357422 595.83959961 855.70776367 C595.12352539 854.99555664 594.40745117 854.28334961 593.66967773 853.54956055 C592.96133789 852.83993164 592.25299805 852.13030273 591.52319336 851.39916992 C590.89856201 850.77341064 590.27393066 850.14765137 589.63037109 849.50292969 C587.8403347 847.60894684 586.15232845 845.68683551 584.46264648 843.70581055 C579.04934283 837.48863671 573.14374373 831.74313404 567.31225586 825.92260742 C566.04090554 824.650582 564.76970357 823.37840829 563.49864197 822.10609436 C560.84511626 819.4511014 558.18980867 816.79790724 555.53320312 814.14599609 C552.14643426 810.7649239 548.76417568 807.37938109 545.38324833 803.99246883 C542.76236943 801.36795799 540.13909069 798.74585623 537.51510429 796.12445259 C536.26777417 794.87778446 535.0211723 793.63038719 533.77534676 792.3822155 C532.02713437 790.63143304 530.27569572 788.88393908 528.5234375 787.13720703 C528.02085419 786.63259949 527.51827087 786.12799194 527.00045776 785.60809326 C524.28645138 782.90974036 521.50296544 780.3438938 518.60191345 777.84706116 C513.87995037 773.75153302 509.48816745 769.3564597 505.08374023 764.92456055 C503.70930404 763.54788285 502.33486772 762.17120529 500.96042633 760.79453278 C499.49851246 759.3292701 498.03785467 757.862766 496.57756042 756.39588928 C493.51947096 753.32415874 490.45746466 750.25635219 487.39489746 747.18908691 C480.34276592 740.12496625 473.29568104 733.05581818 466.2486496 725.98661041 C459.78435362 719.50207685 453.31896858 713.01863884 446.84950972 706.53925562 C443.81205645 703.49685328 440.77705012 700.45203807 437.74396515 697.40528107 C436.30819137 695.96381052 434.87124984 694.52351613 433.43379211 693.08372498 C431.69076499 691.33785523 429.94951215 689.5902113 428.210495 687.84034729 C423.97551124 683.60498174 419.6702269 679.52562304 415.11594391 675.63425446 C412.49856706 673.36027309 410.08863383 670.92527079 407.65209961 668.45776367 C407.1496875 667.95156494 406.64727539 667.44536621 406.12963867 666.92382812 C404.02252011 664.80066718 401.92155748 662.67145525 399.82006836 660.54272461 C394.47837406 655.1380699 389.1402505 649.81212848 383.35522461 644.87573242 C378.48914558 640.5643864 374.02667766 635.8039441 369.46850586 631.17260742 C365.22735632 626.89021493 360.92186759 622.79502212 356.34936523 618.86987305 C352.16305341 615.1622368 348.31595392 611.09649795 344.40209961 607.10620117 C340.49763271 603.15597881 336.49531551 599.40835996 332.28637695 595.78442383 C330.04744807 593.83674716 327.89286897 591.81233408 325.73901367 589.77172852 C298.2857778 563.85735116 264.76767276 548.59327394 226.57006836 548.92651367 C194.9213232 550.17590899 165.20480213 561.14074145 141.40209961 582.14526367 Z M1199.53491211 581.93432617 C1197.35302381 584.23112445 1195.08244023 586.32803634 1192.67553711 588.38745117 C1187.47765098 592.86523025 1182.71593679 597.7623614 1177.90209961 602.64526367 C1176.10252508 604.47065706 1174.30048192 606.29362038 1172.49584961 608.11401367 C1171.31539062 609.311875 1171.31539062 609.311875 1170.11108398 610.53393555 C1168.0135974 612.55580978 1165.89721656 614.46295681 1163.69140625 616.36035156 C1158.80388391 620.60327902 1154.24893825 625.15479983 1149.67944336 629.73510742 C1148.77513077 630.63846329 1147.87081818 631.54181915 1146.93910217 632.47254944 C1145.03775018 634.37322435 1143.13742408 636.27485975 1141.23876953 638.17822266 C1138.826241 640.59644759 1136.4092488 643.01015325 1133.99088192 645.4225378 C1131.65545386 647.75344769 1129.32387784 650.08820323 1126.99194336 652.42260742 C1126.13447006 653.27805649 1125.27699677 654.13350555 1124.39353943 655.01487732 C1120.0369702 659.38830627 1115.8229495 663.82513153 1111.80639648 668.51391602 C1107.79369613 673.17540137 1103.32233412 677.40187474 1098.65209961 681.39526367 C1094.53848417 684.925847 1090.74706249 688.73972392 1086.96557617 692.61889648 C1084.30616366 695.32525042 1081.57984439 697.88345849 1078.6973877 700.35217285 C1074.47212514 704.03417058 1070.49911644 707.92054749 1066.55249023 711.8972168 C1065.44347603 713.0084214 1065.44347603 713.0084214 1064.3120575 714.14207458 C1062.72048097 715.73743185 1061.1300598 717.33394242 1059.54069519 718.9315033 C1057.0198917 721.46516779 1054.49589246 723.99561002 1051.97106934 726.52526855 C1046.61192665 731.89579276 1041.25672318 737.27023422 1035.90209961 742.64526367 C1029.69311622 748.87790882 1023.48249561 755.10890398 1017.2676239 761.3356781 C1014.79072474 763.81902178 1012.3168762 766.30537664 1009.84313965 768.79187012 C1008.31281226 770.32583275 1006.78234276 771.85965363 1005.25170898 773.39331055 C1004.57303268 774.07715317 1003.89435638 774.76099579 1003.19511414 775.46556091 C1000.03090335 778.63011629 996.82563772 781.6873496 993.43652344 784.61083984 C989.09137308 788.36373266 985.04584897 792.37542329 981.00170898 796.44799805 C980.20384476 797.24732254 979.40598053 798.04664703 978.5839386 798.87019348 C976.8646781 800.5932376 975.14657302 802.31743524 973.42951965 804.04267883 C970.70708006 806.77796619 967.9814553 809.51004385 965.25500488 812.24133301 C959.46788728 818.03983859 953.68467888 823.84223272 947.90209961 829.64526367 C941.1975053 836.37357063 934.4912202 843.1001724 927.78071594 849.82258606 C925.10438799 852.50536433 922.43110634 855.19115258 919.75793457 857.8770752 C918.10626908 859.53237554 916.45446172 861.18753434 914.80249023 862.8425293 C914.0677095 863.58247635 913.33292877 864.3224234 912.57588196 865.08479309 C908.58831548 869.07276241 904.51114644 872.88612155 900.22336578 876.55040073 C896.94794084 879.41865465 893.90444105 882.52042522 890.83959961 885.61010742 C890.1628418 886.28828018 889.48608398 886.96645294 888.78881836 887.66517639 C886.65752286 889.80200672 884.52975743 891.9423119 882.40209961 894.08276367 C880.94530182 895.54458491 879.48827259 897.00617554 878.03100586 898.4675293 C874.48535988 902.02411768 870.94287222 905.58382384 867.40209961 909.14526367 C872.8250993 915.73588377 878.82797509 921.71687779 884.86303711 927.73901367 C885.97887492 928.85552664 887.09456437 929.97218788 888.21011353 931.08898926 C890.5400667 933.42041004 892.87180129 935.75003013 895.20483398 938.07836914 C898.17573714 941.04358228 901.14213606 944.01325436 904.10719872 946.98430634 C906.40810467 949.28884899 908.71141572 951.59097605 911.01543045 953.89241028 C912.10925033 954.98556912 913.2023447 956.07945445 914.29465866 957.17411804 C919.55202626 962.44031182 924.83016874 967.61176225 930.48547363 972.45547485 C934.23184788 975.75845697 937.72405031 979.32510855 941.24975586 982.86010742 C942.47304848 984.08196495 942.47304848 984.08196495 943.72105408 985.32850647 C945.43407969 987.0408556 947.14585926 988.7544521 948.85644531 990.46923828 C951.45713513 993.07528382 954.06311917 995.67594889 956.66967773 998.27612305 C958.34252447 999.94963066 960.01506095 1001.62344849 961.68725586 1003.29760742 C962.45723404 1004.06556137 963.22721222 1004.83351532 964.02052307 1005.6247406 C967.39930302 1009.01802205 970.6979249 1012.43134777 973.82006836 1016.06323242 C978.11753112 1021.04700417 982.77295331 1025.65938881 987.42944336 1030.30541992 C988.38690986 1031.26356227 989.34422806 1032.22185284 990.30140686 1033.18028259 C992.29583708 1035.17617654 994.29203702 1037.17027819 996.28955078 1039.16308594 C998.8288436 1041.69668231 1001.36361864 1044.23474351 1003.89707088 1046.7741785 C1005.86942145 1048.7501707 1007.84418224 1050.72374047 1009.81964302 1052.69662285 C1011.20336589 1054.07936966 1012.58510275 1055.46410298 1013.96678162 1056.84889221 C1017.74925437 1060.61746412 1021.53129918 1064.3119406 1025.59960938 1067.77197266 C1028.1860224 1069.98611659 1030.45622651 1072.26770919 1032.65625 1074.86450195 C1036.31374511 1079.09428603 1040.17958654 1083.06388989 1044.13818359 1087.01074219 C1044.87738037 1087.75169128 1045.61657715 1088.49264038 1046.37817383 1089.25604248 C1048.79902109 1091.68125647 1051.2234671 1094.10283461 1053.64819336 1096.52416992 C1055.34552866 1098.22217975 1057.04271556 1099.92033792 1058.73976135 1101.61863708 C1062.28777547 1105.16812116 1065.83758073 1108.71580146 1069.38867188 1112.26220703 C1073.92558811 1116.79342643 1078.45799974 1121.32912083 1082.98907375 1125.86618137 C1086.49009564 1129.37082782 1089.99350946 1132.8730754 1093.4976368 1136.37461662 C1095.16921313 1138.04552893 1096.84005541 1139.71717594 1098.51012993 1141.38958931 C1100.84987308 1143.73189017 1103.19282933 1146.07093091 1105.53662109 1148.40917969 C1106.21686844 1149.09145126 1106.89711578 1149.77372284 1107.59797668 1150.47666931 C1111.46909279 1154.33095997 1115.44306294 1158.00523488 1119.59080505 1161.56080627 C1122.61617066 1164.20729075 1125.44486619 1167.04516504 1128.28100586 1169.89135742 C1128.89676987 1170.5061647 1129.51253387 1171.12097198 1130.1469574 1171.75440979 C1131.43627603 1173.04305393 1132.72435694 1174.33293756 1134.01123047 1175.62402344 C1135.9600683 1177.57821991 1137.91419233 1179.52701514 1139.86889648 1181.4753418 C1145.92839864 1187.53175032 1151.85199235 1193.61303448 1157.40209961 1200.14526367 C1163.78200291 1207.06992062 1170.71882946 1212.90923607 1178.15991211 1218.62573242 C1180.65739543 1220.54835292 1183.05727235 1222.53693186 1185.40209961 1224.64526367 C1197.68579605 1235.59320634 1211.31316037 1246.44954688 1226.40209961 1253.14526367 C1227.28897461 1253.55260742 1228.17584961 1253.95995117 1229.08959961 1254.37963867 C1234.88935814 1256.93279324 1240.78073302 1259.00058532 1246.83959961 1260.83276367 C1247.49452393 1261.03514648 1248.14944824 1261.2375293 1248.82421875 1261.44604492 C1282.25035441 1271.18299426 1317.59613761 1264.38971328 1347.63305664 1248.12133789 C1355.61176563 1243.71906373 1362.27270922 1238.75296949 1368.89428711 1232.47729492 C1371.40209961 1230.14526367 1371.40209961 1230.14526367 1373.95288086 1228.16088867 C1378.45959806 1224.45201136 1381.8192954 1219.72329128 1385.40209961 1215.14526367 C1386.06467773 1214.32155273 1386.72725586 1213.4978418 1387.40991211 1212.64916992 C1397.54150517 1199.5027101 1404.81758155 1184.05512003 1409.40209961 1168.14526367 C1409.72843492 1167.07721109 1410.05477023 1166.00915851 1410.39099449 1164.9087407 C1413.52280348 1153.76909448 1413.97064303 1143.35838926 1413.91676331 1131.83613586 C1413.92209868 1129.82438579 1413.92917002 1127.81263971 1413.93781036 1125.80090111 C1413.95633368 1120.31353866 1413.95016836 1114.82644799 1413.93965733 1109.33907473 C1413.93263577 1103.4049967 1413.94868577 1097.47097285 1413.96165466 1091.53691101 C1413.98200571 1080.59663501 1413.9841257 1069.65644984 1413.9764382 1058.71615986 C1413.96934802 1048.60413517 1413.96932476 1038.49214228 1413.97630119 1028.38011742 C1413.97721255 1027.02037472 1413.97812331 1025.66063203 1413.97903348 1024.30088934 C1413.98041671 1022.25151722 1413.98180781 1020.20214511 1413.98321961 1018.15277301 C1413.99618909 999.11428574 1414.00132903 980.07580905 1413.98968601 961.03732014 C1413.98924804 960.32057017 1413.98881007 959.60382021 1413.98835883 958.86535055 C1413.98475252 953.0459618 1413.98091748 947.22657319 1413.9770679 941.4071846 C1413.96222787 918.72030498 1413.97099246 896.03354581 1413.99902344 873.34667969 C1414.03050675 847.81726223 1414.04540348 822.28791604 1414.03522342 796.75847882 C1414.03418676 794.03214881 1414.03319952 791.30581879 1414.03223991 788.57948875 C1414.03199103 787.90827121 1414.03174214 787.23705366 1414.03148571 786.54549619 C1414.02805689 776.44769232 1414.03730883 766.34995172 1414.05301094 756.25216103 C1414.07058242 744.75662518 1414.07034814 733.26125288 1414.04765929 721.76572333 C1414.03655988 715.90786463 1414.03325664 710.05029353 1414.05195999 704.19244766 C1414.06890342 698.81631886 1414.06222794 693.44072541 1414.0377432 688.06463041 C1414.03290459 686.13339073 1414.03625141 684.2021067 1414.04923064 682.27090458 C1414.16830362 663.15433349 1410.35512549 645.56257926 1402.40209961 628.14526367 C1402.12027832 627.50814453 1401.83845703 626.87102539 1401.5480957 626.21459961 C1396.57624134 615.0629307 1390.08208495 605.60591819 1382.40209961 596.14526367 C1381.68924805 595.25838867 1380.97639648 594.37151367 1380.24194336 593.45776367 C1375.26067825 587.56616469 1369.48066306 582.86393287 1363.40209961 578.14526367 C1362.48686523 577.40276367 1361.57163086 576.66026367 1360.62866211 575.89526367 C1340.6795762 560.15461507 1314.89665961 550.13855822 1289.40209961 549.14526367 C1288.42241211 549.09370117 1287.44272461 549.04213867 1286.43334961 548.98901367 C1254.52426249 548.09436637 1221.6286057 558.49167769 1199.53491211 581.93432617 Z M-11.59790039 1383.14526367 C-12.30591797 1383.2897998 -13.01393555 1383.43433594 -13.7434082 1383.58325195 C-44.22995285 1390.04250813 -70.39352474 1405.57259146 -92.59790039 1427.14526367 C-93.14969971 1427.67514893 -93.70149902 1428.20503418 -94.27001953 1428.75097656 C-109.15064139 1443.27100508 -120.47384862 1461.65736842 -127.59790039 1481.14526367 C-128.01555664 1482.23194336 -128.43321289 1483.31862305 -128.86352539 1484.43823242 C-142.16303889 1521.17212965 -140.06536159 1562.97730323 -123.67993164 1598.37963867 C-116.61507208 1613.10714036 -107.67356168 1625.82512706 -96.65649414 1637.86401367 C-95.04571266 1639.64901629 -93.52413382 1641.44803718 -92.03540039 1643.33276367 C-69.72852052 1669.07147121 -32.29383922 1685.63505357 1.1862793 1688.91821289 C19.69327934 1690.2248869 39.31663979 1690.64339033 57.40209961 1686.14526367 C58.20180176 1685.94658691 59.00150391 1685.74791016 59.82543945 1685.54321289 C91.39818148 1677.39521161 117.99580975 1660.73083195 140.40209961 1637.14526367 C140.94092773 1636.57807617 141.47975586 1636.01088867 142.03491211 1635.42651367 C170.25509315 1604.44994285 181.13945752 1564.83751242 179.60913086 1523.66625977 C177.57834108 1489.12846472 162.70624744 1457.31957931 139.40209961 1432.14526367 C138.79978516 1431.49235352 138.1974707 1430.83944336 137.5769043 1430.16674805 C128.10896406 1420.02287372 118.14394391 1411.5441963 106.40209961 1404.14526367 C105.74773926 1403.73195801 105.09337891 1403.31865234 104.41918945 1402.89282227 C87.38849361 1392.33370524 69.00105172 1385.97734653 49.40209961 1382.14526367 C47.5497168 1381.77594727 47.5497168 1381.77594727 45.65991211 1381.39916992 C26.83100019 1378.30371388 7.03342776 1379.32522987 -11.59790039 1383.14526367 Z M1434.40209961 1389.14526367 C1433.77158691 1389.3747168 1433.14107422 1389.60416992 1432.49145508 1389.84057617 C1409.25989766 1398.36720778 1390.73477651 1411.7844493 1373.40209961 1429.14526367 C1372.7562793 1429.76788086 1372.11045898 1430.39049805 1371.44506836 1431.03198242 C1343.61090996 1458.04576562 1331.46712958 1494.67700069 1330.39819336 1532.77416992 C1330.30213448 1541.95706139 1331.21979303 1551.04881439 1332.40209961 1560.14526367 C1332.49475098 1560.87052246 1332.58740234 1561.59578125 1332.68286133 1562.34301758 C1337.90227226 1600.67679311 1361.38931174 1634.4199595 1391.62866211 1657.65698242 C1408.1766576 1670.02540272 1426.24900212 1678.62841075 1446.02709961 1684.45776367 C1446.83687256 1684.70034912 1447.64664551 1684.94293457 1448.48095703 1685.19287109 C1461.50027406 1688.84789222 1474.66067213 1689.53013491 1488.08959961 1689.45776367 C1489.20353088 1689.45403244 1489.20353088 1689.45403244 1490.33996582 1689.45022583 C1516.10597642 1689.31721545 1539.40545279 1684.00377553 1562.40209961 1672.14526367 C1563.34827148 1671.67604492 1564.29444336 1671.20682617 1565.26928711 1670.72338867 C1576.27633716 1665.04438893 1586.19223984 1657.59729379 1595.23022461 1649.16479492 C1597.13414566 1647.39442229 1599.08101112 1645.73140599 1601.08959961 1644.08276367 C1604.95281903 1640.78687018 1608.14760745 1637.03031369 1611.40209961 1633.14526367 C1612.10334961 1632.35506836 1612.80459961 1631.56487305 1613.52709961 1630.75073242 C1620.07193252 1623.17190682 1624.83653915 1615.00292097 1629.40209961 1606.14526367 C1629.72452637 1605.52103516 1630.04695313 1604.89680664 1630.37915039 1604.25366211 C1649.04313366 1567.55075832 1651.7913053 1525.36683185 1639.15209961 1486.27026367 C1636.25972641 1477.81449117 1632.70029109 1469.83228924 1628.41381836 1461.99633789 C1627.39972076 1460.14091126 1626.41616494 1458.27131565 1625.43334961 1456.39916992 C1621.29738261 1448.68301291 1616.46764689 1442.4313763 1610.40209961 1436.14526367 C1609.24838402 1434.81874487 1608.10210725 1433.48570695 1606.96459961 1432.14526367 C1593.90560963 1417.30550234 1578.95238673 1406.16312397 1561.40209961 1397.14526367 C1560.36053711 1396.60385742 1559.31897461 1396.06245117 1558.24584961 1395.50463867 C1520.1426181 1376.84583974 1474.2171711 1374.40211556 1434.40209961 1389.14526367 Z " fill="#FFFFFF" transform="translate(745.597900390625,589.854736328125)"/>
</svg>
