<svg width="953" height="804" viewBox="0 0 953 804" fill="none" xmlns="http://www.w3.org/2000/svg">
<path fill-rule="evenodd" clip-rule="evenodd" d="M477.289 128L217.789 387.5L248.789 418.5L477.289 190L705.789 418.5L737.289 387L477.289 128ZM215.789 389L246.789 420L193.789 473L329.789 609L477.289 461.5L624.789 609L760.789 473L712.289 424.5L743.289 393.5L788.934 439.145C808.46 458.671 808.46 490.329 788.934 509.855L660.145 638.645C640.618 658.171 608.96 658.171 589.434 638.645L477.289 526.5L365.145 638.645C345.618 658.171 313.96 658.171 294.434 638.645L165.645 509.855C146.118 490.329 146.118 458.671 165.645 439.145L215.789 389Z" fill="url(#paint0_linear_8_193)"/>
<path d="M402 202L364.355 164.355C344.829 144.829 313.171 144.829 293.645 164.355L166.355 291.645C146.829 311.171 146.829 342.829 166.355 362.355L305.645 501.645C325.171 521.171 356.829 521.171 376.355 501.645L508.5 369.5C491.103 352.103 462.897 352.103 445.5 369.5L341 474L194 327L329 192L370.5 233.5L402 202Z" fill="#325EC6"/>
<path d="M550.5 202L589.234 163.266C608.725 143.775 640.315 143.735 659.855 163.177L787.966 290.645C807.577 310.157 807.617 341.883 788.056 361.444L648.001 501.499C628.418 521.082 596.648 521.017 577.145 501.353L491.5 415L523 383.5L612.5 473L759.5 326L624.5 191L582 233.5L550.5 202Z" fill="#325EC6"/>
<path d="M402 264L433 233L476.5 276.5L519.5 233.5L550 264L511.355 302.645C491.829 322.171 460.171 322.171 440.645 302.645L402 264Z" fill="#325EC6"/>
<defs>
<linearGradient id="paint0_linear_8_193" x1="482.79" y1="282" x2="471.79" y2="803" gradientUnits="userSpaceOnUse">
<stop stop-color="#6BD5FF"/>
<stop offset="1" stop-color="#1571FA"/>
</linearGradient>
</defs>
</svg>
